# xmcd
#
# Track frame offsets:
#	150
#	12189
#	24419
#	33467
#	42688
#	52684
#	62064
#	72074
#	82161
#	91491
#	101540
#	113025
#	125438
#	133723
#	145379
#	155754
#	165804
#
# Disc length: 2340 seconds
#
# Revision: 0
# Processed by: cddbd v1.5.2PL0 Copyright (c) Steve Scherf et al.
# Submitted via: EasyCDDAExtractor 16.0.4.1
#
DISCID=e0092211
DTITLE=Johhny Cash - The Very Best
DYEAR=1900
DGENRE=Country
TTITLE0=I Walk The Line
TTITLE1=Folsom Prison Blues
TTITLE2=Blue Train
TTITLE3=Luther Played The Boogie
TTITLE4=I Could Never Be Ashamed Of You
TTITLE5=The Island Line
TTITLE6=Hey Porter
TTITLE7=The Ways Of A Woman In Love
TTITLE8=Down The Street To 301
TTITLE9=Goodbye Little Darlin'
TTITLE10=Thanks A Lot
TTITLE11=Give My Love To Rose
TTITLE12=Guess Things Happen That Way
TTITLE13=You're The Nearest Thing To Heaven
TTITLE14=I Heard That Lonesome Whistle Blow
TTITLE15=Get Rhythm
TTITLE16=There You Go
EXTD=
EXTT0=
EXTT1=
EXTT2=
EXTT3=
EXTT4=
EXTT5=
EXTT6=
EXTT7=
EXTT8=
EXTT9=
EXTT10=
EXTT11=
EXTT12=
EXTT13=
EXTT14=
EXTT15=
EXTT16=
PLAYORDER=
